<svg width="200" height="70" viewBox="0 0 200 70" fill="none" xmlns="http://www.w3.org/2000/svg">
<g clip-path="url(#clip0_6171_16144)">
<path d="M13.5415 4.59312C7.92882 4.70602 5.10009 16.5526 7.08099 22.8727C6.99243 23.3456 6.92168 23.8197 6.851 24.2938C-0.321958 25.6453 -2.57062 46.2099 4.92663 46.3156C5.71678 46.3352 6.50334 46.3864 7.31487 46.3754C1.93821 50.6842 0.923431 67.4356 7.55903 67.517C65.778 68.3117 123.979 69.1052 182.198 69.8992C189.392 69.9852 191.61 52.4504 186.076 48.4518C188.239 48.5927 190.384 48.7326 192.544 48.9052C200.149 49.4966 202.474 27.9159 195.004 26.7588C186.951 25.5 178.908 24.3058 170.834 23.237C173.433 23.183 176.031 23.1289 178.649 23.0761C186.267 22.9024 188.781 0.759583 181.109 0.929748C125.243 2.13953 69.3903 3.38218 13.5237 4.59196L13.5415 4.59312Z" fill="#FBB130"/>
</g>
<defs>
<clipPath id="clip0_6171_16144">
<rect width="200" height="69" fill="white" transform="translate(0 0.904297)"/>
</clipPath>
</defs>
</svg>
